{
.appVersion = "1271";
copyright = "Copyright 2019 Google LLC. All Rights Reserved.";
customParameters = (
{
name = glyphOrder;
value = (
.notdef,
NULL,
CR,
space,
uni00A0,
u1D2E0,
u1D2E1,
u1D2E2,
u1D2E3,
u1D2E4,
u1D2E5,
u1D2E6,
u1D2E7,
u1D2E8,
u1D2E9,
u1D2EA,
u1D2EB,
u1D2EC,
u1D2ED,
u1D2EE,
u1D2EF,
u1D2F0,
u1D2F1,
u1D2F2,
u1D2F3
);
},
{
name = description;
value = "Designed by Monotype design team.";
},
{
name = license;
value = "This Font Software is licensed under the SIL Open Font License, Version 1.1. This Font Software is distributed on an \"AS IS\" BASIS, WITHOUT WARRANTIES OR CONDITIONS OF ANY KIND, either express or implied. See the SIL Open Font License for the specific language, permissions and limitations governing your use of this Font Software.";
},
{
name = licenseURL;
value = "http://scripts.sil.org/OFL";
},
{
name = trademark;
value = "Noto is a trademark of Google Inc.";
},
{
name = versionString;
value = "Version 2.000";
},
{
name = fsType;
value = (
);
},
{
name = unicodeRanges;
value = (
0,
1,
57
);
},
{
name = "Has WWS Names";
value = 1;
},
{
name = vendorID;
value = GOOG;
},
{
name = codePageRanges;
value = (
"1252"
);
}
);
date = "2019-09-03 18:23:50 +0000";
designer = "Monotype Design Team";
designerURL = "http://www.monotype.com/studio";
disablesAutomaticAlignment = 1;
familyName = "Noto Sans Mayan Numerals";
fontMaster = (
{
alignmentZones = (
"{1069, 16}",
"{714, 16}",
"{536, 16}",
"{0, -16}",
"{-293, -16}"
);
ascender = 1069;
capHeight = 714;
customParameters = (
{
name = typoAscender;
value = 1069;
},
{
name = typoDescender;
value = -293;
},
{
name = typoLineGap;
value = 0;
},
{
name = winAscent;
value = 1069;
},
{
name = winDescent;
value = 293;
},
{
name = hheaAscender;
value = 1069;
},
{
name = hheaDescender;
value = -293;
},
{
name = hheaLineGap;
value = 0;
},
{
name = underlinePosition;
value = -100;
},
{
name = underlineThickness;
value = 50;
}
);
descender = -293;
horizontalStems = (
103,
148
);

glyphs = (
{
glyphname = .notdef;
production = .notdef;
lastChange = "2019-09-09 19:18:29 +0000";
layers = (
{
layerId = "AC718878-9857-4DBF-AA73-3A744B29694D";
paths = (
{
closed = 1;
nodes = (
"505 0 LINE",
"505 714 LINE",
"94 714 LINE",
"94 0 LINE"
);
},
{
closed = 1;
nodes = (
"145 663 LINE",
"454 663 LINE",
"454 51 LINE",
"145 51 LINE"
);
}
);
width = 600;
}
);
script = "";
category = Separator;
subCategory = Other;
},
{
glyphname = u1D2E0;
production = u1D2E0;
lastChange = "2019-09-09 19:18:29 +0000";
layers = (
{
layerId = "AC718878-9857-4DBF-AA73-3A744B29694D";
paths = (
{
closed = 1;
nodes = (
"657 -21 OFFCURVE",
"832 70 OFFCURVE",
"832 187 CURVE SMOOTH",
"832 303 OFFCURVE",
"657 394 OFFCURVE",
"438 394 CURVE SMOOTH",
"219 394 OFFCURVE",
"45 303 OFFCURVE",
"45 187 CURVE SMOOTH",
"45 70 OFFCURVE",
"218 -21 OFFCURVE",
"438 -21 CURVE SMOOTH"
);
},
{
closed = 1;
nodes = (
"236 13 OFFCURVE",
"86 92 OFFCURVE",
"86 187 CURVE SMOOTH",
"86 282 OFFCURVE",
"237 360 OFFCURVE",
"438 360 CURVE SMOOTH",
"638 360 OFFCURVE",
"791 281 OFFCURVE",
"791 187 CURVE SMOOTH",
"791 93 OFFCURVE",
"639 13 OFFCURVE",
"438 13 CURVE SMOOTH"
);
},
{
closed = 1;
nodes = (
"724 188 OFFCURVE",
"597 154 OFFCURVE",
"438 154 CURVE SMOOTH",
"321 154 OFFCURVE",
"173 188 OFFCURVE",
"83 257 CURVE",
"67 224 LINE",
"163 151 OFFCURVE",
"315 112 OFFCURVE",
"438 112 CURVE SMOOTH",
"601 112 OFFCURVE",
"734 149 OFFCURVE",
"810 224 CURVE",
"794 257 LINE"
);
},
{
closed = 1;
nodes = (
"621 161 LINE",
"659 161 LINE",
"659 343 LINE",
"621 343 LINE"
);
},
{
closed = 1;
nodes = (
"218 161 LINE",
"256 161 LINE",
"256 343 LINE",
"218 343 LINE"
);
},
{
closed = 1;
nodes = (
"419 135 LINE",
"457 135 LINE",
"457 376 LINE",
"419 376 LINE"
);
}
);
width = 877;
}
);
unicode = 1D2E0;
script = "";
category = Other;
subCategory = Other;
},
{
glyphname = u1D2E1;
production = u1D2E1;
lastChange = "2019-09-09 19:18:29 +0000";
layers = (
{
layerId = "AC718878-9857-4DBF-AA73-3A744B29694D";
paths = (
{
closed = 1;
nodes = (
"520 -6 OFFCURVE",
"553 27 OFFCURVE",
"553 68 CURVE SMOOTH",
"553 109 OFFCURVE",
"520 142 OFFCURVE",
"479 142 CURVE SMOOTH",
"438 142 OFFCURVE",
"405 109 OFFCURVE",
"405 68 CURVE SMOOTH",
"405 27 OFFCURVE",
"438 -6 OFFCURVE",
"479 -6 CURVE SMOOTH"
);
}
);
width = 958;
}
);
unicode = 1D2E1;
script = "";
category = Other;
subCategory = Other;
},
{
glyphname = u1D2E2;
production = u1D2E2;
lastChange = "2019-09-09 19:18:29 +0000";
layers = (
{
layerId = "AC718878-9857-4DBF-AA73-3A744B29694D";
paths = (
{
closed = 1;
nodes = (
"181 -6 OFFCURVE",
"214 27 OFFCURVE",
"214 68 CURVE SMOOTH",
"214 109 OFFCURVE",
"181 142 OFFCURVE",
"140 142 CURVE SMOOTH",
"99 142 OFFCURVE",
"66 109 OFFCURVE",
"66 68 CURVE SMOOTH",
"66 27 OFFCURVE",
"99 -6 OFFCURVE",
"140 -6 CURVE SMOOTH"
);
},
{
closed = 1;
nodes = (
"859 -6 OFFCURVE",
"892 27 OFFCURVE",
"892 68 CURVE SMOOTH",
"892 109 OFFCURVE",
"859 142 OFFCURVE",
"818 142 CURVE SMOOTH",
"777 142 OFFCURVE",
"744 109 OFFCURVE",
"744 68 CURVE SMOOTH",
"744 27 OFFCURVE",
"777 -6 OFFCURVE",
"818 -6 CURVE SMOOTH"
);
}
);
width = 958;
}
);
unicode = 1D2E2;
script = "";
category = Other;
subCategory = Other;
},
{
glyphname = u1D2E3;
production = u1D2E3;
lastChange = "2019-09-09 19:18:29 +0000";
layers = (
{
layerId = "AC718878-9857-4DBF-AA73-3A744B29694D";
paths = (
{
closed = 1;
nodes = (
"181 -6 OFFCURVE",
"214 27 OFFCURVE",
"214 68 CURVE SMOOTH",
"214 109 OFFCURVE",
"181 142 OFFCURVE",
"140 142 CURVE SMOOTH",
"99 142 OFFCURVE",
"66 109 OFFCURVE",
"66 68 CURVE SMOOTH",
"66 27 OFFCURVE",
"99 -6 OFFCURVE",
"140 -6 CURVE SMOOTH"
);
},
{
closed = 1;
nodes = (
"859 -6 OFFCURVE",
"892 27 OFFCURVE",
"892 68 CURVE SMOOTH",
"892 109 OFFCURVE",
"859 142 OFFCURVE",
"818 142 CURVE SMOOTH",
"777 142 OFFCURVE",
"744 109 OFFCURVE",
"744 68 CURVE SMOOTH",
"744 27 OFFCURVE",
"777 -6 OFFCURVE",
"818 -6 CURVE SMOOTH"
);
},
{
closed = 1;
nodes = (
"520 -6 OFFCURVE",
"553 27 OFFCURVE",
"553 68 CURVE SMOOTH",
"553 109 OFFCURVE",
"520 142 OFFCURVE",
"479 142 CURVE SMOOTH",
"438 142 OFFCURVE",
"405 109 OFFCURVE",
"405 68 CURVE SMOOTH",
"405 27 OFFCURVE",
"438 -6 OFFCURVE",
"479 -6 CURVE SMOOTH"
);
}
);
width = 958;
}
);
unicode = 1D2E3;
script = "";
category = Other;
subCategory = Other;
},
{
glyphname = u1D2E4;
production = u1D2E4;
lastChange = "2019-09-09 19:18:29 +0000";
layers = (
{
layerId = "AC718878-9857-4DBF-AA73-3A744B29694D";
paths = (
{
closed = 1;
nodes = (
"859 -6 OFFCURVE",
"892 27 OFFCURVE",
"892 68 CURVE SMOOTH",
"892 109 OFFCURVE",
"859 142 OFFCURVE",
"818 142 CURVE SMOOTH",
"777 142 OFFCURVE",
"744 109 OFFCURVE",
"744 68 CURVE SMOOTH",
"744 27 OFFCURVE",
"777 -6 OFFCURVE",
"818 -6 CURVE SMOOTH"
);
},
{
closed = 1;
nodes = (
"181 -6 OFFCURVE",
"214 27 OFFCURVE",
"214 68 CURVE SMOOTH",
"214 109 OFFCURVE",
"181 142 OFFCURVE",
"140 142 CURVE SMOOTH",
"99 142 OFFCURVE",
"66 109 OFFCURVE",
"66 68 CURVE SMOOTH",
"66 27 OFFCURVE",
"99 -6 OFFCURVE",
"140 -6 CURVE SMOOTH"
);
},
{
closed = 1;
nodes = (
"407 -6 OFFCURVE",
"440 27 OFFCURVE",
"440 68 CURVE SMOOTH",
"440 109 OFFCURVE",
"407 142 OFFCURVE",
"366 142 CURVE SMOOTH",
"325 142 OFFCURVE",
"292 109 OFFCURVE",
"292 68 CURVE SMOOTH",
"292 27 OFFCURVE",
"325 -6 OFFCURVE",
"366 -6 CURVE SMOOTH"
);
},
{
closed = 1;
nodes = (
"633 -6 OFFCURVE",
"666 27 OFFCURVE",
"666 68 CURVE SMOOTH",
"666 109 OFFCURVE",
"633 142 OFFCURVE",
"592 142 CURVE SMOOTH",
"551 142 OFFCURVE",
"518 109 OFFCURVE",
"518 68 CURVE SMOOTH",
"518 27 OFFCURVE",
"551 -6 OFFCURVE",
"592 -6 CURVE SMOOTH"
);
}
);
width = 958;
}
);
unicode = 1D2E4;
script = "";
category = Other;
subCategory = Other;
},
{
glyphname = u1D2E5;
production = u1D2E5;
lastChange = "2019-09-09 19:18:29 +0000";
layers = (
{
layerId = "AC718878-9857-4DBF-AA73-3A744B29694D";
paths = (
{
closed = 1;
nodes = (
"45 0 LINE",
"913 0 LINE",
"913 103 LINE",
"45 103 LINE"
);
}
);
width = 958;
}
);
unicode = 1D2E5;
script = "";
category = Other;
subCategory = Other;
},
{
glyphname = u1D2E6;
production = u1D2E6;
lastChange = "2019-09-09 19:18:29 +0000";
layers = (
{
layerId = "AC718878-9857-4DBF-AA73-3A744B29694D";
paths = (
{
closed = 1;
nodes = (
"45 0 LINE",
"913 0 LINE",
"913 103 LINE",
"45 103 LINE"
);
},
{
closed = 1;
nodes = (
"520 159 OFFCURVE",
"553 192 OFFCURVE",
"553 233 CURVE SMOOTH",
"553 274 OFFCURVE",
"520 307 OFFCURVE",
"479 307 CURVE SMOOTH",
"438 307 OFFCURVE",
"405 274 OFFCURVE",
"405 233 CURVE SMOOTH",
"405 192 OFFCURVE",
"438 159 OFFCURVE",
"479 159 CURVE SMOOTH"
);
}
);
width = 958;
}
);
unicode = 1D2E6;
script = "";
category = Other;
subCategory = Other;
},
{
glyphname = u1D2E7;
production = u1D2E7;
lastChange = "2019-09-09 19:18:29 +0000";
layers = (
{
layerId = "AC718878-9857-4DBF-AA73-3A744B29694D";
paths = (
{
closed = 1;
nodes = (
"45 0 LINE",
"913 0 LINE",
"913 103 LINE",
"45 103 LINE"
);
},
{
closed = 1;
nodes = (
"181 159 OFFCURVE",
"214 192 OFFCURVE",
"214 233 CURVE SMOOTH",
"214 274 OFFCURVE",
"181 307 OFFCURVE",
"140 307 CURVE SMOOTH",
"99 307 OFFCURVE",
"66 274 OFFCURVE",
"66 233 CURVE SMOOTH",
"66 192 OFFCURVE",
"99 159 OFFCURVE",
"140 159 CURVE SMOOTH"
);
},
{
closed = 1;
nodes = (
"859 159 OFFCURVE",
"892 192 OFFCURVE",
"892 233 CURVE SMOOTH",
"892 274 OFFCURVE",
"859 307 OFFCURVE",
"818 307 CURVE SMOOTH",
"777 307 OFFCURVE",
"744 274 OFFCURVE",
"744 233 CURVE SMOOTH",
"744 192 OFFCURVE",
"777 159 OFFCURVE",
"818 159 CURVE SMOOTH"
);
}
);
width = 958;
}
);
unicode = 1D2E7;
script = "";
category = Other;
subCategory = Other;
},
{
glyphname = u1D2E8;
production = u1D2E8;
lastChange = "2019-09-09 19:18:29 +0000";
layers = (
{
layerId = "AC718878-9857-4DBF-AA73-3A744B29694D";
paths = (
{
closed = 1;
nodes = (
"45 0 LINE",
"913 0 LINE",
"913 103 LINE",
"45 103 LINE"
);
},
{
closed = 1;
nodes = (
"181 159 OFFCURVE",
"214 192 OFFCURVE",
"214 233 CURVE SMOOTH",
"214 274 OFFCURVE",
"181 307 OFFCURVE",
"140 307 CURVE SMOOTH",
"99 307 OFFCURVE",
"66 274 OFFCURVE",
"66 233 CURVE SMOOTH",
"66 192 OFFCURVE",
"99 159 OFFCURVE",
"140 159 CURVE SMOOTH"
);
},
{
closed = 1;
nodes = (
"859 159 OFFCURVE",
"892 192 OFFCURVE",
"892 233 CURVE SMOOTH",
"892 274 OFFCURVE",
"859 307 OFFCURVE",
"818 307 CURVE SMOOTH",
"777 307 OFFCURVE",
"744 274 OFFCURVE",
"744 233 CURVE SMOOTH",
"744 192 OFFCURVE",
"777 159 OFFCURVE",
"818 159 CURVE SMOOTH"
);
},
{
closed = 1;
nodes = (
"520 159 OFFCURVE",
"553 192 OFFCURVE",
"553 233 CURVE SMOOTH",
"553 274 OFFCURVE",
"520 307 OFFCURVE",
"479 307 CURVE SMOOTH",
"438 307 OFFCURVE",
"405 274 OFFCURVE",
"405 233 CURVE SMOOTH",
"405 192 OFFCURVE",
"438 159 OFFCURVE",
"479 159 CURVE SMOOTH"
);
}
);
width = 958;
}
);
unicode = 1D2E8;
script = "";
category = Other;
subCategory = Other;
},
{
glyphname = u1D2E9;
production = u1D2E9;
lastChange = "2019-09-09 19:18:29 +0000";
layers = (
{
layerId = "AC718878-9857-4DBF-AA73-3A744B29694D";
paths = (
{
closed = 1;
nodes = (
"45 0 LINE",
"913 0 LINE",
"913 103 LINE",
"45 103 LINE"
);
},
{
closed = 1;
nodes = (
"181 159 OFFCURVE",
"214 192 OFFCURVE",
"214 233 CURVE SMOOTH",
"214 274 OFFCURVE",
"181 307 OFFCURVE",
"140 307 CURVE SMOOTH",
"99 307 OFFCURVE",
"66 274 OFFCURVE",
"66 233 CURVE SMOOTH",
"66 192 OFFCURVE",
"99 159 OFFCURVE",
"140 159 CURVE SMOOTH"
);
},
{
closed = 1;
nodes = (
"859 159 OFFCURVE",
"892 192 OFFCURVE",
"892 233 CURVE SMOOTH",
"892 274 OFFCURVE",
"859 307 OFFCURVE",
"818 307 CURVE SMOOTH",
"777 307 OFFCURVE",
"744 274 OFFCURVE",
"744 233 CURVE SMOOTH",
"744 192 OFFCURVE",
"777 159 OFFCURVE",
"818 159 CURVE SMOOTH"
);
},
{
closed = 1;
nodes = (
"407 159 OFFCURVE",
"440 192 OFFCURVE",
"440 233 CURVE SMOOTH",
"440 274 OFFCURVE",
"407 307 OFFCURVE",
"366 307 CURVE SMOOTH",
"325 307 OFFCURVE",
"292 274 OFFCURVE",
"292 233 CURVE SMOOTH",
"292 192 OFFCURVE",
"325 159 OFFCURVE",
"366 159 CURVE SMOOTH"
);
},
{
closed = 1;
nodes = (
"633 159 OFFCURVE",
"666 192 OFFCURVE",
"666 233 CURVE SMOOTH",
"666 274 OFFCURVE",
"633 307 OFFCURVE",
"592 307 CURVE SMOOTH",
"551 307 OFFCURVE",
"518 274 OFFCURVE",
"518 233 CURVE SMOOTH",
"518 192 OFFCURVE",
"551 159 OFFCURVE",
"592 159 CURVE SMOOTH"
);
}
);
width = 958;
}
);
unicode = 1D2E9;
script = "";
category = Other;
subCategory = Other;
},
{
glyphname = u1D2EA;
production = u1D2EA;
lastChange = "2019-09-09 19:18:29 +0000";
layers = (
{
layerId = "AC718878-9857-4DBF-AA73-3A744B29694D";
paths = (
{
closed = 1;
nodes = (
"45 0 LINE",
"913 0 LINE",
"913 103 LINE",
"45 103 LINE"
);
},
{
closed = 1;
nodes = (
"45 173 LINE",
"913 173 LINE",
"913 276 LINE",
"45 276 LINE"
);
}
);
width = 958;
}
);
unicode = 1D2EA;
script = "";
category = Other;
subCategory = Other;
},
{
glyphname = u1D2EB;
production = u1D2EB;
lastChange = "2019-09-09 19:18:29 +0000";
layers = (
{
layerId = "AC718878-9857-4DBF-AA73-3A744B29694D";
paths = (
{
closed = 1;
nodes = (
"45 0 LINE",
"913 0 LINE",
"913 103 LINE",
"45 103 LINE"
);
},
{
closed = 1;
nodes = (
"45 173 LINE",
"913 173 LINE",
"913 276 LINE",
"45 276 LINE"
);
},
{
closed = 1;
nodes = (
"520 332 OFFCURVE",
"553 365 OFFCURVE",
"553 406 CURVE SMOOTH",
"553 447 OFFCURVE",
"520 480 OFFCURVE",
"479 480 CURVE SMOOTH",
"438 480 OFFCURVE",
"405 447 OFFCURVE",
"405 406 CURVE SMOOTH",
"405 365 OFFCURVE",
"438 332 OFFCURVE",
"479 332 CURVE SMOOTH"
);
}
);
width = 958;
}
);
unicode = 1D2EB;
script = "";
category = Other;
subCategory = Other;
},
{
glyphname = u1D2EC;
production = u1D2EC;
lastChange = "2019-09-09 19:18:29 +0000";
layers = (
{
layerId = "AC718878-9857-4DBF-AA73-3A744B29694D";
paths = (
{
closed = 1;
nodes = (
"45 0 LINE",
"913 0 LINE",
"913 103 LINE",
"45 103 LINE"
);
},
{
closed = 1;
nodes = (
"45 173 LINE",
"913 173 LINE",
"913 276 LINE",
"45 276 LINE"
);
},
{
closed = 1;
nodes = (
"181 332 OFFCURVE",
"214 365 OFFCURVE",
"214 406 CURVE SMOOTH",
"214 447 OFFCURVE",
"181 480 OFFCURVE",
"140 480 CURVE SMOOTH",
"99 480 OFFCURVE",
"66 447 OFFCURVE",
"66 406 CURVE SMOOTH",
"66 365 OFFCURVE",
"99 332 OFFCURVE",
"140 332 CURVE SMOOTH"
);
},
{
closed = 1;
nodes = (
"859 332 OFFCURVE",
"892 365 OFFCURVE",
"892 406 CURVE SMOOTH",
"892 447 OFFCURVE",
"859 480 OFFCURVE",
"818 480 CURVE SMOOTH",
"777 480 OFFCURVE",
"744 447 OFFCURVE",
"744 406 CURVE SMOOTH",
"744 365 OFFCURVE",
"777 332 OFFCURVE",
"818 332 CURVE SMOOTH"
);
}
);
width = 958;
}
);
unicode = 1D2EC;
script = "";
category = Other;
subCategory = Other;
},
{
glyphname = u1D2ED;
production = u1D2ED;
lastChange = "2019-09-09 19:18:29 +0000";
layers = (
{
layerId = "AC718878-9857-4DBF-AA73-3A744B29694D";
paths = (
{
closed = 1;
nodes = (
"45 0 LINE",
"913 0 LINE",
"913 103 LINE",
"45 103 LINE"
);
},
{
closed = 1;
nodes = (
"45 173 LINE",
"913 173 LINE",
"913 276 LINE",
"45 276 LINE"
);
},
{
closed = 1;
nodes = (
"181 332 OFFCURVE",
"214 365 OFFCURVE",
"214 406 CURVE SMOOTH",
"214 447 OFFCURVE",
"181 480 OFFCURVE",
"140 480 CURVE SMOOTH",
"99 480 OFFCURVE",
"66 447 OFFCURVE",
"66 406 CURVE SMOOTH",
"66 365 OFFCURVE",
"99 332 OFFCURVE",
"140 332 CURVE SMOOTH"
);
},
{
closed = 1;
nodes = (
"859 332 OFFCURVE",
"892 365 OFFCURVE",
"892 406 CURVE SMOOTH",
"892 447 OFFCURVE",
"859 480 OFFCURVE",
"818 480 CURVE SMOOTH",
"777 480 OFFCURVE",
"744 447 OFFCURVE",
"744 406 CURVE SMOOTH",
"744 365 OFFCURVE",
"777 332 OFFCURVE",
"818 332 CURVE SMOOTH"
);
},
{
closed = 1;
nodes = (
"520 332 OFFCURVE",
"553 365 OFFCURVE",
"553 406 CURVE SMOOTH",
"553 447 OFFCURVE",
"520 480 OFFCURVE",
"479 480 CURVE SMOOTH",
"438 480 OFFCURVE",
"405 447 OFFCURVE",
"405 406 CURVE SMOOTH",
"405 365 OFFCURVE",
"438 332 OFFCURVE",
"479 332 CURVE SMOOTH"
);
}
);
width = 958;
}
);
unicode = 1D2ED;
script = "";
category = Other;
subCategory = Other;
},
{
glyphname = u1D2EE;
production = u1D2EE;
lastChange = "2019-09-09 19:18:29 +0000";
layers = (
{
layerId = "AC718878-9857-4DBF-AA73-3A744B29694D";
paths = (
{
closed = 1;
nodes = (
"45 0 LINE",
"913 0 LINE",
"913 103 LINE",
"45 103 LINE"
);
},
{
closed = 1;
nodes = (
"45 173 LINE",
"913 173 LINE",
"913 276 LINE",
"45 276 LINE"
);
},
{
closed = 1;
nodes = (
"181 332 OFFCURVE",
"214 365 OFFCURVE",
"214 406 CURVE SMOOTH",
"214 447 OFFCURVE",
"181 480 OFFCURVE",
"140 480 CURVE SMOOTH",
"99 480 OFFCURVE",
"66 447 OFFCURVE",
"66 406 CURVE SMOOTH",
"66 365 OFFCURVE",
"99 332 OFFCURVE",
"140 332 CURVE SMOOTH"
);
},
{
closed = 1;
nodes = (
"859 332 OFFCURVE",
"892 365 OFFCURVE",
"892 406 CURVE SMOOTH",
"892 447 OFFCURVE",
"859 480 OFFCURVE",
"818 480 CURVE SMOOTH",
"777 480 OFFCURVE",
"744 447 OFFCURVE",
"744 406 CURVE SMOOTH",
"744 365 OFFCURVE",
"777 332 OFFCURVE",
"818 332 CURVE SMOOTH"
);
},
{
closed = 1;
nodes = (
"407 332 OFFCURVE",
"440 365 OFFCURVE",
"440 406 CURVE SMOOTH",
"440 447 OFFCURVE",
"407 480 OFFCURVE",
"366 480 CURVE SMOOTH",
"325 480 OFFCURVE",
"292 447 OFFCURVE",
"292 406 CURVE SMOOTH",
"292 365 OFFCURVE",
"325 332 OFFCURVE",
"366 332 CURVE SMOOTH"
);
},
{
closed = 1;
nodes = (
"633 332 OFFCURVE",
"666 365 OFFCURVE",
"666 406 CURVE SMOOTH",
"666 447 OFFCURVE",
"633 480 OFFCURVE",
"592 480 CURVE SMOOTH",
"551 480 OFFCURVE",
"518 447 OFFCURVE",
"518 406 CURVE SMOOTH",
"518 365 OFFCURVE",
"551 332 OFFCURVE",
"592 332 CURVE SMOOTH"
);
}
);
width = 958;
}
);
unicode = 1D2EE;
script = "";
category = Other;
subCategory = Other;
},
{
glyphname = u1D2EF;
production = u1D2EF;
lastChange = "2019-09-09 19:18:29 +0000";
layers = (
{
layerId = "AC718878-9857-4DBF-AA73-3A744B29694D";
paths = (
{
closed = 1;
nodes = (
"45 0 LINE",
"913 0 LINE",
"913 103 LINE",
"45 103 LINE"
);
},
{
closed = 1;
nodes = (
"45 346 LINE",
"913 346 LINE",
"913 449 LINE",
"45 449 LINE"
);
},
{
closed = 1;
nodes = (
"45 173 LINE",
"913 173 LINE",
"913 276 LINE",
"45 276 LINE"
);
}
);
width = 958;
}
);
unicode = 1D2EF;
script = "";
category = Other;
subCategory = Other;
},
{
glyphname = u1D2F0;
production = u1D2F0;
lastChange = "2019-09-09 19:18:29 +0000";
layers = (
{
layerId = "AC718878-9857-4DBF-AA73-3A744B29694D";
paths = (
{
closed = 1;
nodes = (
"45 0 LINE",
"913 0 LINE",
"913 103 LINE",
"45 103 LINE"
);
},
{
closed = 1;
nodes = (
"45 346 LINE",
"913 346 LINE",
"913 449 LINE",
"45 449 LINE"
);
},
{
closed = 1;
nodes = (
"45 173 LINE",
"913 173 LINE",
"913 276 LINE",
"45 276 LINE"
);
},
{
closed = 1;
nodes = (
"520 505 OFFCURVE",
"553 538 OFFCURVE",
"553 579 CURVE SMOOTH",
"553 620 OFFCURVE",
"520 653 OFFCURVE",
"479 653 CURVE SMOOTH",
"438 653 OFFCURVE",
"405 620 OFFCURVE",
"405 579 CURVE SMOOTH",
"405 538 OFFCURVE",
"438 505 OFFCURVE",
"479 505 CURVE SMOOTH"
);
}
);
width = 958;
}
);
unicode = 1D2F0;
script = "";
category = Other;
subCategory = Other;
},
{
glyphname = u1D2F1;
production = u1D2F1;
lastChange = "2019-09-09 19:18:29 +0000";
layers = (
{
layerId = "AC718878-9857-4DBF-AA73-3A744B29694D";
paths = (
{
closed = 1;
nodes = (
"45 0 LINE",
"913 0 LINE",
"913 103 LINE",
"45 103 LINE"
);
},
{
closed = 1;
nodes = (
"45 346 LINE",
"913 346 LINE",
"913 449 LINE",
"45 449 LINE"
);
},
{
closed = 1;
nodes = (
"45 173 LINE",
"913 173 LINE",
"913 276 LINE",
"45 276 LINE"
);
},
{
closed = 1;
nodes = (
"181 505 OFFCURVE",
"214 538 OFFCURVE",
"214 579 CURVE SMOOTH",
"214 620 OFFCURVE",
"181 653 OFFCURVE",
"140 653 CURVE SMOOTH",
"99 653 OFFCURVE",
"66 620 OFFCURVE",
"66 579 CURVE SMOOTH",
"66 538 OFFCURVE",
"99 505 OFFCURVE",
"140 505 CURVE SMOOTH"
);
},
{
closed = 1;
nodes = (
"859 505 OFFCURVE",
"892 538 OFFCURVE",
"892 579 CURVE SMOOTH",
"892 620 OFFCURVE",
"859 653 OFFCURVE",
"818 653 CURVE SMOOTH",
"777 653 OFFCURVE",
"744 620 OFFCURVE",
"744 579 CURVE SMOOTH",
"744 538 OFFCURVE",
"777 505 OFFCURVE",
"818 505 CURVE SMOOTH"
);
}
);
width = 958;
}
);
unicode = 1D2F1;
script = "";
category = Other;
subCategory = Other;
},
{
glyphname = u1D2F2;
production = u1D2F2;
lastChange = "2019-09-09 19:18:29 +0000";
layers = (
{
layerId = "AC718878-9857-4DBF-AA73-3A744B29694D";
paths = (
{
closed = 1;
nodes = (
"45 0 LINE",
"913 0 LINE",
"913 103 LINE",
"45 103 LINE"
);
},
{
closed = 1;
nodes = (
"45 346 LINE",
"913 346 LINE",
"913 449 LINE",
"45 449 LINE"
);
},
{
closed = 1;
nodes = (
"45 173 LINE",
"913 173 LINE",
"913 276 LINE",
"45 276 LINE"
);
},
{
closed = 1;
nodes = (
"181 505 OFFCURVE",
"214 538 OFFCURVE",
"214 579 CURVE SMOOTH",
"214 620 OFFCURVE",
"181 653 OFFCURVE",
"140 653 CURVE SMOOTH",
"99 653 OFFCURVE",
"66 620 OFFCURVE",
"66 579 CURVE SMOOTH",
"66 538 OFFCURVE",
"99 505 OFFCURVE",
"140 505 CURVE SMOOTH"
);
},
{
closed = 1;
nodes = (
"859 505 OFFCURVE",
"892 538 OFFCURVE",
"892 579 CURVE SMOOTH",
"892 620 OFFCURVE",
"859 653 OFFCURVE",
"818 653 CURVE SMOOTH",
"777 653 OFFCURVE",
"744 620 OFFCURVE",
"744 579 CURVE SMOOTH",
"744 538 OFFCURVE",
"777 505 OFFCURVE",
"818 505 CURVE SMOOTH"
);
},
{
closed = 1;
nodes = (
"520 505 OFFCURVE",
"553 538 OFFCURVE",
"553 579 CURVE SMOOTH",
"553 620 OFFCURVE",
"520 653 OFFCURVE",
"479 653 CURVE SMOOTH",
"438 653 OFFCURVE",
"405 620 OFFCURVE",
"405 579 CURVE SMOOTH",
"405 538 OFFCURVE",
"438 505 OFFCURVE",
"479 505 CURVE SMOOTH"
);
}
);
width = 958;
}
);
unicode = 1D2F2;
script = "";
category = Other;
subCategory = Other;
},
{
glyphname = u1D2F3;
production = u1D2F3;
lastChange = "2019-09-09 19:18:29 +0000";
layers = (
{
layerId = "AC718878-9857-4DBF-AA73-3A744B29694D";
paths = (
{
closed = 1;
nodes = (
"45 0 LINE",
"913 0 LINE",
"913 103 LINE",
"45 103 LINE"
);
},
{
closed = 1;
nodes = (
"45 346 LINE",
"913 346 LINE",
"913 449 LINE",
"45 449 LINE"
);
},
{
closed = 1;
nodes = (
"45 173 LINE",
"913 173 LINE",
"913 276 LINE",
"45 276 LINE"
);
},
{
closed = 1;
nodes = (
"181 505 OFFCURVE",
"214 538 OFFCURVE",
"214 579 CURVE SMOOTH",
"214 620 OFFCURVE",
"181 653 OFFCURVE",
"140 653 CURVE SMOOTH",
"99 653 OFFCURVE",
"66 620 OFFCURVE",
"66 579 CURVE SMOOTH",
"66 538 OFFCURVE",
"99 505 OFFCURVE",
"140 505 CURVE SMOOTH"
);
},
{
closed = 1;
nodes = (
"859 505 OFFCURVE",
"892 538 OFFCURVE",
"892 579 CURVE SMOOTH",
"892 620 OFFCURVE",
"859 653 OFFCURVE",
"818 653 CURVE SMOOTH",
"777 653 OFFCURVE",
"744 620 OFFCURVE",
"744 579 CURVE SMOOTH",
"744 538 OFFCURVE",
"777 505 OFFCURVE",
"818 505 CURVE SMOOTH"
);
},
{
closed = 1;
nodes = (
"407 505 OFFCURVE",
"440 538 OFFCURVE",
"440 579 CURVE SMOOTH",
"440 620 OFFCURVE",
"407 653 OFFCURVE",
"366 653 CURVE SMOOTH",
"325 653 OFFCURVE",
"292 620 OFFCURVE",
"292 579 CURVE SMOOTH",
"292 538 OFFCURVE",
"325 505 OFFCURVE",
"366 505 CURVE SMOOTH"
);
},
{
closed = 1;
nodes = (
"633 505 OFFCURVE",
"666 538 OFFCURVE",
"666 579 CURVE SMOOTH",
"666 620 OFFCURVE",
"633 653 OFFCURVE",
"592 653 CURVE SMOOTH",
"551 653 OFFCURVE",
"518 620 OFFCURVE",
"518 579 CURVE SMOOTH",
"518 538 OFFCURVE",
"551 505 OFFCURVE",
"592 505 CURVE SMOOTH"
);
}
